PathFileType	4	(X/Y/Z)	C:/Users/opensim2020/Desktop/walking_exp_matlab/subject06_walking17_straight_02.trc																																																																																																																																					
DataRate	CameraRate	NumFrames	NumMarkers	Units	OrigDataRate	OrigDataStartFrame	OrigNumFrames																																																																																																																																	
100	100	8	45	mm	100	2324	334																																																																																																																																	
Frame#	Time	LFHD			RFHD			LBHD			RBHD			C7			T10			CLAV			STRN			RBAK			LSHO			LUPA			LELB			LFRM			LWRA			LWRB			LFIN			RSHO			RUPA			RELB			RFRM			RWRA			RWRB			RFIN			LASI			RASI			LPSI			RPSI			LTHI			LKNE			LTIB			LANK			LHEE			LTOE			RTHI			RKNE			RTIB			RANK			RHEE			RTOE			*39			*40			*41			*42			*43			*44		
		X1	Y1	Z1	X2	Y2	Z2	X3	Y3	Z3	X4	Y4	Z4	X5	Y5	Z5	X6	Y6	Z6	X7	Y7	Z7	X8	Y8	Z8	X9	Y9	Z9	X10	Y10	Z10	X11	Y11	Z11	X12	Y12	Z12	X13	Y13	Z13	X14	Y14	Z14	X15	Y15	Z15	X16	Y16	Z16	X17	Y17	Z17	X18	Y18	Z18	X19	Y19	Z19	X20	Y20	Z20	X21	Y21	Z21	X22	Y22	Z22	X23	Y23	Z23	X24	Y24	Z24	X25	Y25	Z25	X26	Y26	Z26	X27	Y27	Z27	X28	Y28	Z28	X29	Y29	Z29	X30	Y30	Z30	X31	Y31	Z31	X32	Y32	Z32	X33	Y33	Z33	X34	Y34	Z34	X35	Y35	Z35	X36	Y36	Z36	X37	Y37	Z37	X38	Y38	Z38	X39	Y39	Z39	X40	Y40	Z40	X41	Y41	Z41	X42	Y42	Z42	X43	Y43	Z43	X44	Y44	Z44	X45	Y45	Z45
																																																																																																																																								
168	1.67	-140.96344	1672.36621	-1556.04175	-156.64767	1658.06763	-1425.47852	-273.36133	1618.42151	-1573.25403	-287.99585	1609.86865	-1444.83411	-281.40945	1459.53101	-1513.77832	-319.10068	1131.54272	-1491.35645	-173.62158	1380.52417	-1504.16174	-137.09351	1203.79248	-1502.92419	-358.9812	1292.96277	-1429.13074	-216.84714	1407.74097	-1668.4248	-181.71902	1210.63562	-1744.85071	-154.70966	1100.93616	-1760.94727	-68.211	976.6803	-1769.69812	27.29118	901.81464	-1710.21155	-17.65256	868.98895	-1754.13843	55.58931	817.23053	-1744.43689	-222.5181	1418.57507	-1346.75281	-260.87442	1221.39795	-1255.86853	-251.78363	1099.86328	-1242.18591	-235.32239	980.9588	-1222.1781	-173.03983	841.99316	-1250.40369	-227.5486	843.66724	-1210.4021	-189.94283	767.9231	-1206.86499	-140.7897	968.9549	-1590.79541	-143.89937	981.51447	-1368.88684	-299.51755	996.39777	-1562.6709	-294.29172	999.96118	-1394.68494	-221.78294	655.776	-1636.51013	-237.0042	492.04352	-1612.10474	-292.52484	240.38788	-1593.84399	-300.93127	69.40749	-1540.31934	-340.30545	56.63221	-1494.07275	-155.84177	40.87668	-1538.62537	-130.8909	653.43481	-1298.97461	-86.27341	534.4505	-1321.49829	-112.91524	273.24527	-1323.95154	-111.94844	86.61423	-1363.85583	-143.75507	59.38171	-1414.11047	39.56952	54.95006	-1351.00903	-247.53052	1709.41541	-1507.89587	NaN	NaN	NaN	NaN	NaN	NaN	NaN	NaN	NaN	NaN	NaN	NaN	NaN	NaN	NaN
169	1.68	-134.70328	1671.95728	-1555.75916	-150.9523	1657.59985	-1425.06262	-267.45697	1618.08533	-1573.05835	-282.26956	1609.54395	-1444.61963	-275.69623	1459.13342	-1513.53943	-313.50128	1131.14331	-1491.44751	-168.03397	1380.11621	-1503.91235	-131.44327	1203.43262	-1502.78992	-353.42331	1292.44568	-1429.18689	-211.1974	1407.47107	-1668.23914	-176.62241	1210.2511	-1744.59399	-149.44119	1100.40161	-1760.45813	-61.54296	977.13251	-1768.7511	36.18069	904.8891	-1709.86206	-9.4152	870.47351	-1751.94263	64.68124	819.75598	-1742.72998	-217.21899	1418.07935	-1346.53162	-256.27982	1221.01563	-1255.57214	-247.33925	1099.36157	-1242.10291	-231.071	980.46362	-1222.26709	-168.9357	841.38379	-1250.33374	-223.53639	843.14575	-1210.51343	-186.10834	767.36102	-1206.901	-135.34267	968.37659	-1590.96741	-138.4509	980.86902	-1369.15369	-294.04691	996.04993	-1562.82874	-288.65781	999.61108	-1394.83423	-217.51979	655.30646	-1636.58411	-233.5153	491.64011	-1612.08655	-290.72971	240.29369	-1593.8208	-300.49475	69.46369	-1540.0791	-340.1319	56.92328	-1493.8374	-155.61319	40.7653	-1538.52625	-126.71689	652.62628	-1298.50171	-81.95854	533.68317	-1321.55908	-100.186	271.99002	-1323.72839	-92.7455	85.41247	-1363.32727	-125.26483	57.95227	-1412.245	59.8819	56.47063	-1353.38977	-241.66032	1709.06311	-1507.66211	NaN	NaN	NaN	NaN	NaN	NaN	NaN	NaN	NaN	NaN	NaN	NaN	NaN	NaN	NaN
170	1.69	-128.95439	1671.38098	-1555.15076	-145.24593	1657.07568	-1424.60645	-261.51959	1617.70374	-1572.81665	-276.52792	1609.13025	-1444.39355	-270.00311	1458.67651	-1513.1864	-307.81104	1130.6842	-1491.32605	-162.32054	1379.66479	-1503.64905	-125.79766	1203.01477	-1502.64038	-347.8588	1291.85938	-1429.25342	-205.54776	1407.16553	-1667.99377	-171.68715	1209.78088	-1744.22949	-144.34679	1099.79688	-1759.7124	-55.11469	977.44989	-1767.61816	44.68481	907.84827	-1709.37415	-1.46931	871.63464	-1749.31677	73.3773	822.23511	-1740.85425	-211.8528	1417.48914	-1346.25183	-251.47365	1220.41626	-1255.68799	-242.82922	1098.77856	-1242.08081	-226.77229	979.8407	-1222.22656	-165.0321	840.64899	-1250.2345	-219.59537	842.52795	-1210.5321	-182.29243	766.53619	-1206.85059	-129.88466	967.71198	-1591.11511	-132.84418	980.177	-1369.34399	-288.52057	995.62854	-1562.91724	-283.00839	999.17096	-1394.9231	-213.17569	654.80725	-1636.59924	-229.91704	491.21985	-1611.99792	-288.59964	240.17082	-1593.80627	-299.95834	69.51595	-1539.73987	-339.8999	57.18459	-1493.50818	-155.17453	40.57393	-1538.68823	-122.45065	651.66577	-1298.09985	-77.67252	532.82501	-1321.8114	-87.73495	270.98209	-1323.52966	-74.19443	84.62408	-1362.84131	-105.64391	56.32236	-1412.55762	79.42588	58.46699	-1355.36255	-235.77094	1708.62952	-1507.35034	NaN	NaN	NaN	NaN	NaN	NaN	NaN	NaN	NaN	NaN	NaN	NaN	NaN	NaN	NaN
171	1.7	-122.98631	1670.80908	-1554.6084	-139.47723	1656.47046	-1424.07031	-255.58	1617.23596	-1572.46875	-270.7446	1608.64453	-1444.07825	-264.27243	1458.1731	-1512.90955	-302.07059	1130.15186	-1491.23914	-156.70665	1379.11072	-1503.32422	-120.04739	1202.54578	-1502.45593	-342.18646	1291.19617	-1429.30481	-199.95943	1406.84558	-1667.76086	-166.77664	1209.26343	-1743.69531	-139.37123	1099.14551	-1758.8811	-48.92545	977.71613	-1766.29871	52.91544	910.70593	-1708.77148	6.16153	872.78632	-1746.45435	81.82815	824.61389	-1738.80701	-206.46255	1416.79712	-1345.92395	-247.18423	1219.74255	-1255.65894	-238.34517	1098.15686	-1241.96704	-222.7437	979.14093	-1222.03845	-161.17508	839.79919	-1249.9823	-215.75728	841.79773	-1210.41479	-178.4875	765.81018	-1206.73779	-124.3164	967.01099	-1591.27527	-127.1491	979.4104	-1369.58154	-282.88025	995.15527	-1562.95642	-277.20367	998.66583	-1394.95398	-208.80341	654.25269	-1636.47278	-226.29823	490.69308	-1611.84998	-286.3259	239.89893	-1593.62427	-299.25677	69.52289	-1539.27124	-339.59274	57.44641	-1493.14111	-155.03314	40.44102	-1538.14819	-118.45922	650.64575	-1297.53503	-73.57948	531.82556	-1322.05286	-75.72432	270.15515	-1323.37793	-56.48644	84.16324	-1362.2937	-87.5854	55.14878	-1411.65247	98.10524	61.56533	-1356.98804	-229.85503	1708.12012	-1506.95044	NaN	NaN	NaN	NaN	NaN	NaN	NaN	NaN	NaN	NaN	NaN	NaN	NaN	NaN	NaN
172	1.71	-116.98018	1670.15967	-1553.97131	-133.66452	1655.81653	-1423.45569	-249.48779	1616.69312	-1571.96826	-264.92645	1608.04541	-1443.6593	-258.50296	1457.63831	-1512.55298	-296.31033	1129.54382	-1491.20715	-150.93915	1378.56641	-1502.96289	-114.26692	1201.96912	-1502.29932	-336.52875	1290.46094	-1429.25439	-194.3383	1406.4231	-1667.43713	-161.87653	1208.60083	-1742.98352	-134.49925	1098.40039	-1757.81494	-43.02831	977.73218	-1764.51819	60.86323	913.41382	-1707.98657	13.65316	873.85876	-1743.41565	90.10374	826.85553	-1736.5979	-200.98798	1416.00647	-1345.48962	-242.35326	1219.026	-1255.29565	-233.96014	1097.34656	-1241.77722	-218.48167	978.32141	-1221.86682	-156.97734	838.96198	-1249.66077	-212.05583	840.94379	-1210.27844	-174.82654	764.95319	-1206.42554	-118.83452	966.11359	-1591.328	-121.41197	978.56525	-1369.67615	-277.21329	994.59222	-1562.94226	-271.46173	998.11774	-1394.89539	-204.3614	653.75818	-1636.31909	-222.58202	490.14969	-1611.59485	-284.20358	239.81909	-1593.37939	-298.8848	69.62437	-1538.91882	-339.3295	57.68481	-1492.7655	-154.80067	40.37608	-1537.90454	-114.14498	649.55231	-1297.09692	-69.38039	530.89465	-1322.4054	-64.40282	269.49002	-1323.17151	-39.53339	84.01152	-1361.74329	-70.05901	54.02848	-1410.703	115.92496	65.57667	-1358.26392	-223.91986	1707.5415	-1506.46301	NaN	NaN	NaN	NaN	NaN	NaN	NaN	NaN	NaN	NaN	NaN	NaN	NaN	NaN	NaN
173	1.72	-111.00337	1669.4845	-1553.20093	-127.87132	1655.07336	-1422.75879	-243.61743	1616.08887	-1571.57202	-259.06491	1607.40002	-1443.20923	-252.70755	1457.00867	-1512.13757	-290.43558	1128.87146	-1490.99597	-145.14781	1377.88281	-1502.54993	-108.46101	1201.35461	-1502.0658	-330.82654	1289.66797	-1429.22314	-188.6588	1405.95349	-1667.09583	-156.86627	1207.85901	-1742.14832	-129.70197	1097.58337	-1756.66016	-36.87238	977.71832	-1763.05579	68.57323	916.04645	-1706.9104	21.08541	874.86761	-1740.2865	98.24211	829.10596	-1734.06445	-195.42093	1415.11963	-1345.04199	-237.60687	1218.14941	-1255.08435	-229.7285	1096.46716	-1241.41174	-214.33084	977.43286	-1221.64978	-153.05865	837.98358	-1249.23706	-208.00185	840.07172	-1210.14551	-170.98717	764.00281	-1206.13403	-113.16029	965.33246	-1591.37268	-115.56314	977.73535	-1369.75598	-271.47681	994.00732	-1562.91406	-265.66473	997.49786	-1394.85022	-199.78317	653.23749	-1636.17017	-218.84595	489.67041	-1611.28528	-282.63257	239.77672	-1593.15454	-298.70886	69.8735	-1538.72327	-339.11035	57.93839	-1492.45178	-154.64944	40.25354	-1537.6731	-110.03432	648.16748	-1296.52637	-65.20226	529.89789	-1322.96814	-53.83028	268.91672	-1322.96619	-23.27146	84.22854	-1361.30408	-53.12759	53.0969	-1409.94714	132.68819	70.25465	-1358.5907	-218.01312	1706.92151	-1505.8656	NaN	NaN	NaN	NaN	NaN	NaN	NaN	NaN	NaN	NaN	NaN	NaN	NaN	NaN	NaN
174	1.73	-104.92403	1668.81873	-1552.45581	-122.02077	1654.30359	-1421.98682	-237.47624	1615.45581	-1570.90356	-253.16194	1606.67664	-1442.65002	-246.84564	1456.32275	-1511.59753	-284.60049	1128.16675	-1490.78577	-139.31096	1377.19897	-1502.08423	-102.60677	1200.74121	-1501.76697	-325.08057	1288.7998	-1429.04858	-182.86618	1405.40015	-1666.72925	-151.73904	1207.02869	-1741.24536	-124.92013	1096.58411	-1755.37817	-30.92131	977.65656	-1761.29578	76.14642	918.54089	-1705.68677	28.63803	875.89459	-1737.16541	106.47059	831.29272	-1731.31726	-189.80127	1414.15393	-1344.5	-232.81381	1217.23083	-1254.85168	-225.03075	1095.56592	-1241.23462	-210.19937	976.44556	-1221.32324	-148.72273	836.96307	-1248.85645	-204.17964	839.09424	-1209.93823	-167.3929	762.95398	-1205.66272	-107.46059	964.41479	-1591.30762	-109.72514	976.78558	-1369.68567	-265.64905	993.43414	-1562.81555	-259.8031	996.82477	-1394.67517	-195.12073	652.68451	-1635.8667	-215.11595	489.23813	-1611.03735	-281.29834	239.92245	-1592.9458	-298.2406	69.98251	-1538.38647	-339.09525	58.37915	-1492.17639	-154.3961	40.13338	-1537.67383	-105.29127	646.98914	-1296.26196	-60.34209	529.15826	-1324.0885	-43.75166	268.73346	-1323.00146	-8.02164	84.58642	-1360.88147	-36.89431	52.53263	-1409.5321	148.47058	74.73323	-1358.14612	-212.00626	1706.22266	-1505.21509	NaN	NaN	NaN	NaN	NaN	NaN	NaN	NaN	NaN	NaN	NaN	NaN	NaN	NaN	NaN
175	1.74	-98.90837	1668.12195	-1551.53369	-116.13988	1653.56555	-1421.10498	-231.57037	1614.81152	-1570.34656	-247.21786	1605.93066	-1442.01453	-240.92906	1455.70654	-1511.07715	-278.56412	1127.323	-1490.33826	-133.48363	1376.49805	-1501.54761	-96.79868	1199.98596	-1501.4939	-319.26505	1287.85889	-1428.84644	-176.91026	1404.79468	-1666.35767	-146.53555	1206.03198	-1740.28516	-120.17184	1095.47229	-1754.1145	-24.94905	977.49725	-1759.39819	83.53893	920.91425	-1704.15356	36.12739	876.96979	-1734.08704	114.65078	833.49841	-1728.35156	-184.13655	1413.13525	-1343.901	-228.03203	1216.21008	-1254.49182	-220.80571	1094.52344	-1240.73767	-205.91846	975.41272	-1221.04004	-144.98326	835.73376	-1248.19006	-200.57829	838.01349	-1209.56763	-163.6602	761.89825	-1205.20435	-101.77599	963.54004	-1591.12402	-103.78373	975.81555	-1369.56543	-259.82117	992.84235	-1562.61377	-253.89946	996.12042	-1394.41943	-190.42268	652.14819	-1635.52429	-211.56613	488.80203	-1610.76318	-280.06549	240.07767	-1592.85046	-298.21347	70.23849	-1538.32239	-338.92249	58.62925	-1492.0835	-154.39908	40.09805	-1537.31104	-100.18236	645.94543	-1296.35339	-55.22439	528.79974	-1325.5719	-34.3689	268.36508	-1323.02966	6.2556	85.2036	-1360.15234	-21.37937	52.40789	-1409.47192	163.15527	78.72147	-1356.84692	-206.01921	1705.52332	-1504.48376	NaN	NaN	NaN	NaN	NaN	NaN	NaN	NaN	NaN	NaN	NaN	NaN	NaN	NaN	NaN
